<?xml version="1.0" encoding="iso-8859-1"?>
<!-- Generator: Adobe Illustrator 16.0.0, SVG Export Plug-In . SVG Version: 6.00 Build 0)  -->
<!DOCTYPE svg PUBLIC "-//W3C//DTD SVG 1.1//EN" "http://www.w3.org/Graphics/SVG/1.1/DTD/svg11.dtd">
<svg version="1.1" id="&#x5716;&#x5C64;_1" xmlns="http://www.w3.org/2000/svg" xmlns:xlink="http://www.w3.org/1999/xlink" x="0px"
	 y="0px" width="284.986px" height="105.16px" viewBox="0 0 284.986 105.16" style="enable-background:new 0 0 284.986 105.16;"
	 xml:space="preserve">
<g>
	
		<rect x="262.631" y="74.853" transform="matrix(0.6147 0.7888 -0.7888 0.6147 163.9713 -177.5876)" style="fill:#1D2974;" width="2.25" height="8.372"/>
	<path style="fill:#1D2974;" d="M268.646,84.247c1.257,0.982,2.515,1.967,3.771,2.949c1.129,0.885,2.734-0.695,1.592-1.59
		c-1.256-0.984-2.514-1.969-3.77-2.953C269.11,81.771,267.506,83.353,268.646,84.247"/>
	<path style="fill:#1D2974;" d="M123.443,76.821c2.643-0.336,7.218-0.82,8.689-3.508c0.697-1.273-1.248-2.41-1.943-1.139
		c-1.001,1.827-5.001,2.174-6.748,2.396C122.018,74.75,122.005,77.004,123.443,76.821"/>
	<path style="fill:#1D2974;" d="M122.818,80.374h8.579c1.451,0,1.451-2.252,0-2.252h-8.579
		C121.366,78.124,121.366,80.374,122.818,80.374"/>
	<path style="fill:#1D2974;" d="M126.329,75.211v19.091c0,1.45,2.25,1.45,2.25,0V75.211
		C128.578,73.761,126.329,73.761,126.329,75.211"/>
	<path style="fill:#1D2974;" d="M123.39,82.041c-0.505,3.063-1.053,6.774-2.851,9.364c-0.834,1.195,1.119,2.316,1.941,1.136
		c1.918-2.761,2.542-6.644,3.078-9.901C125.793,81.222,123.627,80.612,123.39,82.041"/>
	<path style="fill:#1D2974;" d="M134.98,78.222c1.03,0.948,2.063,1.897,3.094,2.848c1.063,0.982,2.661-0.604,1.592-1.592
		c-1.031-0.949-2.063-1.896-3.093-2.847C135.507,75.649,133.912,77.237,134.98,78.222"/>
	<path style="fill:#1D2974;" d="M138.152,75.961h4.017c-0.375-0.375-0.75-0.752-1.125-1.127c-0.119,3.91-3.378,6.802-7.205,6.905
		c-1.452,0.039-1.454,2.291,0,2.253c5.073-0.144,9.301-4.009,9.455-9.158c0.02-0.612-0.526-1.123-1.125-1.123h-4.017
		C136.701,73.711,136.701,75.961,138.152,75.961"/>
	<path style="fill:#1D2974;" d="M136.303,72.299c-0.046,1.642-0.815,3.849-2.757,3.941c-1.445,0.067-1.451,2.319,0,2.25
		c3.245-0.156,4.924-3.236,5.007-6.191C138.594,70.847,136.344,70.851,136.303,72.299"/>
	<path style="fill:#1D2974;" d="M136.331,88.716c1.093,1.008,2.186,2.01,3.278,3.018c1.064,0.979,2.662-0.607,1.591-1.592
		c-1.092-1.006-2.187-2.011-3.278-3.017C136.856,86.146,135.263,87.731,136.331,88.716"/>
	<path style="fill:#1D2974;" d="M139.643,86.291h4.264c-0.377-0.373-0.752-0.748-1.127-1.123c-0.221,4.819-5.37,8.067-9.805,8.218
		c-1.445,0.049-1.451,2.299,0,2.248c5.713-0.191,11.772-4.378,12.055-10.466c0.026-0.614-0.533-1.125-1.123-1.125h-4.264
		C138.195,84.043,138.195,86.291,139.643,86.291"/>
	<path style="fill:#1D2974;" d="M137.754,82.479c-0.047,1.783-0.897,4.156-2.997,4.252c-1.446,0.065-1.451,2.315,0,2.25
		c3.403-0.154,5.165-3.404,5.246-6.502C140.045,81.03,137.791,81.034,137.754,82.479"/>
	<path style="fill:#1D2974;" d="M129.298,82.948c0.3,1.238,0.599,2.479,0.9,3.717c0.34,1.412,2.509,0.813,2.169-0.6
		c-0.301-1.238-0.601-2.479-0.9-3.717C131.124,80.938,128.956,81.536,129.298,82.948"/>
	<path style="fill:#1D2974;" d="M157.699,76.124c2.842-0.396,6.938-0.916,8.588-3.609c0.762-1.242-1.187-2.371-1.941-1.137
		c-0.684,1.117-1.983,1.383-3.147,1.711c-1.343,0.381-2.718,0.672-4.097,0.865C155.67,74.157,156.281,76.321,157.699,76.124"/>
	<path style="fill:#1D2974;" d="M155.974,78.745h10.57c1.396,0,1.396-2.168,0-2.168h-10.57
		C154.576,76.577,154.576,78.745,155.974,78.745"/>
	<path style="fill:#1D2974;" d="M168.865,80.338h7.498c1.448,0,1.448-2.252,0-2.252h-7.498
		C167.414,78.086,167.414,80.338,168.865,80.338"/>
	<path style="fill:#1D2974;" d="M175.237,79.211c-0.361,4.966-0.73,9.929-1.095,14.894c0.563-0.32,1.129-0.646,1.693-0.971
		c-0.695-0.334-1.389-0.666-2.08-0.998c-1.303-0.627-2.443,1.313-1.137,1.94c0.69,0.334,1.389,0.666,2.082,1
		c0.793,0.381,1.627-0.089,1.69-0.974c0.363-4.965,0.729-9.928,1.092-14.895C177.594,77.765,175.34,77.774,175.237,79.211"/>
	<path style="fill:#1D2974;" d="M157.66,91.293h7.76c1.396,0,1.396-2.168,0-2.168h-7.76C156.26,89.125,156.26,91.293,157.66,91.293"
		/>
	<path style="fill:#1D2974;" d="M157.131,84.879h8.818c1.182,0,1.182-1.834,0-1.834h-8.818
		C155.946,83.045,155.946,84.879,157.131,84.879"/>
	<path style="fill:#1D2974;" d="M156.076,95.407c3.289-0.438,6.58-0.877,9.873-1.314c1.416-0.189,1.434-2.441,0-2.25
		c-3.293,0.438-6.584,0.877-9.873,1.314C154.656,93.345,154.639,95.599,156.076,95.407"/>
	<path style="fill:#1D2974;" d="M160.418,74.165v19.387c0,1.451,2.25,1.451,2.25,0V74.165
		C162.668,72.713,160.418,72.713,160.418,74.165"/>
	<path style="fill:#1D2974;" d="M158.254,85.918h6.572v-3.912h-6.572V85.918z M165.235,88.17h-7.386
		c-1.02,0-1.844-0.856-1.844-1.905V81.66c0-1.05,0.824-1.906,1.844-1.906h7.386c1.012,0,1.838,0.856,1.838,1.906v4.604
		C167.073,87.313,166.246,88.17,165.235,88.17"/>
	<path style="fill:#1D2974;" d="M167.064,96.543c-0.396,0-0.778-0.207-0.981-0.58c-0.303-0.545-0.105-1.229,0.443-1.528
		c3.229-1.777,4.547-14.746,4.616-22.5c0.006-0.617,0.511-1.115,1.123-1.115h0.013c0.623,0.008,1.12,0.516,1.11,1.137
		c-0.018,2.188-0.346,21.459-5.781,24.453C167.435,96.5,167.25,96.543,167.064,96.543"/>
	<path style="fill:#1D2974;" d="M139.704,18.642c-2.358,0-5.062-0.224-7.551-1.167c-2.142-0.807-3.46-1.262-5.618-1.268
		c-2.683,0.033-5.927,0.136-7.834,1.271c-0.679,0.408-1.554,0.181-1.956-0.497c-0.406-0.679-0.183-1.554,0.497-1.958
		c2.489-1.481,6.053-1.747,9.3-1.672c2.59,0.006,4.229,0.552,6.623,1.45c2.678,1.02,5.81,1.044,8.256,0.945
		c1.666-0.064,3.027-0.418,4.277-1.11c0.739-0.411,1.563-0.921,2.041-1.573c0.465-0.643,1.358-0.773,1.994-0.313
		c0.637,0.468,0.772,1.36,0.311,1.998c-0.805,1.1-1.945,1.822-2.959,2.388c-1.635,0.905-3.451,1.384-5.551,1.468
		C140.955,18.623,140.343,18.642,139.704,18.642"/>
	<path style="fill:#1D2974;" d="M178.18,26.899c2.769,0,2.769-4.285,0-4.285C175.418,22.617,175.418,26.899,178.18,26.899"/>
	<path style="fill:#1D2974;" d="M194.196,50.408c-1.75,0-3.318-1.15-3.802-2.826c-0.459-1.592-0.022-3.201,0.361-4.623l0.271-0.931
		c1.497-5.041,1.887-8.263,1.151-9.573c-0.158-0.276-0.324-0.354-0.483-0.395c-2.054-0.55-3.435,1.264-4.814,4.174l-0.188,0.393
		c-0.35,0.715-1.204,1.002-1.909,0.658c-0.709-0.346-1.004-1.201-0.658-1.91l0.176-0.365c0.906-1.911,3.314-7.001,8.129-5.711
		c0.961,0.252,1.74,0.859,2.242,1.759c1.498,2.669,0.383,7.457-0.908,11.789l-0.199,0.682c-0.36,1.341-0.655,2.439-0.422,3.263
		c0.158,0.543,0.689,0.803,1.146,0.756c0.625-0.051,1.135-0.402,1.977-1.129c0.533-0.459,1.041-1.371,1.211-2.166
		c0.17-0.773,0.938-1.258,1.697-1.098c0.77,0.164,1.264,0.922,1.1,1.694c-0.301,1.403-1.143,2.868-2.139,3.731
		c-0.779,0.672-1.951,1.683-3.625,1.815C194.403,50.402,194.299,50.408,194.196,50.408"/>
	<path style="fill:#1D2974;" d="M181.81,50.094c-0.127,0-0.258-0.021-0.387-0.055c-0.76-0.215-1.201-1.004-0.986-1.765
		c0.16-0.569,0.408-1.344,0.701-2.274c0.914-2.863,2.291-7.193,3.041-11.504c0.211-1.22,0.082-2.123-0.348-2.422
		c-0.648-0.449-0.81-1.341-0.359-1.988c0.449-0.646,1.338-0.809,1.986-0.358c0.998,0.688,2.072,2.164,1.535,5.259
		c-0.783,4.5-2.195,8.942-3.133,11.881c-0.283,0.894-0.521,1.637-0.677,2.186C183.012,49.682,182.437,50.094,181.81,50.094"/>
	<path style="fill:#1D2974;" d="M156.306,19.89c-0.705,0-2.313,2.194-3.045,6.831c-0.305,1.93-0.432,4.326-0.457,6.711
		c1.308-2.361,2.342-4.704,2.813-6.658c0.385-1.597,1.403-5.84,0.721-6.881C156.328,19.89,156.316,19.89,156.306,19.89
		 M169.435,17.435c-0.694,0.576-2.713,3.886-4.393,11.633c-0.682,3.149-0.889,6.119-0.762,8.716c1.207-2.5,2.383-5.39,3.383-8.863
		C169.498,22.551,169.797,18.564,169.435,17.435 M176.864,32.47c-0.265,0.53-0.656,1.678-1.015,4.09
		c-0.114,0.803-0.194,1.563-0.242,2.278c0.205-0.455,0.363-0.862,0.464-1.199C176.875,34.917,176.971,33.233,176.864,32.47
		 M142.806,32.148c-0.609,0-2.163,0.715-4.108,3.062c-1.492,1.8-2.183,3.814-2.417,5.563c1.589-0.765,3.046-1.754,4.251-2.919
		c2.213-2.139,3.073-4.047,2.948-4.993c-0.028-0.229-0.11-0.469-0.509-0.687C142.93,32.158,142.873,32.148,142.806,32.148
		 M121.613,44.585c-1.538,0-2.937,0.34-3.375,1.513c-0.177,0.467-0.151,0.858,0.077,1.198c0.289,0.431,0.859,0.722,1.454,0.74
		c1.382,0.131,2.791-1.815,3.706-3.319C122.865,44.642,122.227,44.585,121.613,44.585 M119.823,50.896
		c-0.044,0-0.093-0.001-0.142-0.002c-1.51-0.046-2.943-0.815-3.742-2.005c-0.745-1.115-0.88-2.463-0.377-3.797
		c1.494-3.967,6.314-3.563,9.396-3.041c0.49-0.969,0.948-1.963,1.369-2.979c1.604-3.891,2.42-7.843,3.284-12.028
		c0.739-3.586,1.503-7.297,2.812-10.988c0.263-0.743,1.074-1.135,1.823-0.869c0.745,0.264,1.135,1.081,0.869,1.824
		c-1.244,3.507-1.987,7.117-2.709,10.611c-0.852,4.131-1.732,8.4-3.439,12.541c-0.327,0.793-0.677,1.575-1.043,2.34
		c0.645,0.043,1.317,0.039,2.014-0.012c1.139-0.082,2.279-0.287,3.394-0.6c0.055-2.583,0.867-5.729,3.167-8.502
		c2.718-3.276,5.528-4.657,7.698-3.79c1.264,0.685,1.957,1.682,2.116,2.888c0.283,2.113-1.102,4.817-3.794,7.426
		c-1.721,1.66-3.868,3.019-6.199,3.965c0.096,0.502,0.229,0.892,0.375,1.131c0.419,0.699,0.973,1.186,1.64,1.451
		c1.818,0.715,3.548,0.336,5.438-1.195c0.938-0.753,2.06-1.903,3.246-3.331c0.979-1.17,2.004-2.533,2.998-3.987
		c-0.147-3.723-0.108-8.261,0.429-11.668c0.659-4.204,2.104-7.462,3.854-8.714c0.926-0.662,1.781-0.69,2.346-0.588
		c0.884,0.151,1.604,0.619,2.082,1.351c1.146,1.742,0.771,4.549-0.332,9.116c-0.821,3.423-3.041,7.631-5.479,11.317
		c0.113,2.324,0.291,4.164,0.438,4.849c0.533,2.455,0.984,3.47,2.457,3.636c2.066,0.237,4.304-1.9,5.521-3.982
		c0.203-0.35,0.412-0.705,0.617-1.07c-0.824-3.908-0.761-8.803,0.309-13.729c1.201-5.547,3.853-14.711,7.975-13.887
		c0.541,0.147,1.164,0.461,1.607,1.258c1.478,2.641-0.26,9.828-1.426,13.877c-1.568,5.453-3.539,9.517-5.41,12.884
		c0.428,1.582,1.01,2.839,1.68,3.672c0.359,0.442,0.912,0.97,1.523,0.97c1.412,0,3.242-1.833,4.795-3.976
		c-0.389-1.945-0.381-4.333,0.029-7.115c0.313-2.144,1.067-7.188,4.075-6.89c0.822,0.074,1.527,0.486,1.99,1.166
		c0.967,1.418,0.871,4.119-0.283,8.026c-0.321,1.103-1.319,3.237-2.729,5.382l0.063,0.225c0.543,2.109,1.027,3.182,2.173,3.182
		c1.797,0,2.52-1.074,3.211-2.375c0.368-0.691,1.231-0.962,1.93-0.589c0.697,0.372,0.963,1.236,0.59,1.933
		c-0.617,1.164-2.068,3.888-5.729,3.888c-2.513,0-3.718-1.782-4.363-3.442c-1.719,1.949-3.729,3.442-5.748,3.442
		c-0.963,0-2.394-0.353-3.748-2.033c-0.521-0.646-0.977-1.407-1.367-2.272c-1.723,2.396-4.481,4.654-7.604,4.297
		c-3.744-0.426-4.472-3.773-4.9-5.773c-0.09-0.396-0.18-1.061-0.268-1.92c-0.375,0.48-0.744,0.939-1.105,1.373
		c-1.322,1.591-2.551,2.845-3.646,3.725c-2.697,2.178-5.483,2.729-8.279,1.627c-1.248-0.494-2.297-1.404-3.038-2.631
		c-0.25-0.416-0.477-1.001-0.64-1.712c-1.143,0.292-2.307,0.486-3.468,0.57c-1.27,0.09-2.498,0.05-3.646-0.116
		c-0.146,0.256-0.296,0.509-0.447,0.759C125.163,47.46,123.114,50.896,119.823,50.896"/>
	<path style="fill:#1D2974;" d="M202.658,56.452c-0.105,0-0.215,0-0.326,0.002c-2.254,0.051-4.57,2.723-4.814,4.789
		c-0.141,1.178,0.392,1.859,1.718,2.211c0.76,0.203,1.401,0.133,2.434-0.822c1.203-1.121,1.975-1.9,2.596-3.746
		c0.229-0.68,0.377-1.385,0.479-2.115C204.172,56.536,203.533,56.452,202.658,56.452 M199.869,66.399
		c-0.426,0-0.879-0.055-1.367-0.187c-2.703-0.711-4.131-2.696-3.824-5.308c0.396-3.313,3.797-7.226,7.592-7.311
		c1.039-0.016,1.925,0.055,2.709,0.251c0.002-0.032,0.002-0.067,0.007-0.104c0.043-0.791,0.084-1.582,0.159-2.361
		c0.431-4.45,2.82-17.117,5.146-21.293c0.381-0.688,1.252-0.939,1.943-0.553c0.688,0.381,0.938,1.252,0.555,1.939
		c-1.959,3.518-4.351,15.518-4.799,20.184c-0.074,0.742-0.113,1.487-0.154,2.238c-0.025,0.477-0.049,0.96-0.086,1.442
		c0.252,0.215,0.506,0.451,0.764,0.717c1.377,1.396,3.785,2.48,5.83,1.558c1.262-0.572,2.236-1.5,3.313-2.72
		c0.52-0.598,1.422-0.651,2.018-0.131c0.592,0.521,0.648,1.426,0.125,2.019c-1.141,1.295-2.447,2.607-4.279,3.435
		c-2.914,1.325-6.094,0.302-8.252-1.442c-0.084,0.342-0.182,0.685-0.295,1.021c-0.819,2.436-1.959,3.625-3.356,4.926
		C202.793,65.483,201.578,66.399,199.869,66.399"/>
	<path style="fill:#1D2974;" d="M202.012,48.455c-0.602,0-1.194-0.105-1.774-0.321c-0.752-0.282-1.771-0.95-2.353-2.521
		c-1.092-2.967-0.043-7.452,1.563-10.351c2.268-4.09,5.516-6.008,7.571-6.059c1.56-0.063,3.564,0.931,4.222,3.15
		c0.143,0.593,0.397,1.891,0.143,2.756c-0.227,0.755-1.012,1.189-1.777,0.962c-0.743-0.222-1.176-0.998-0.971-1.745
		c0.023-0.199-0.051-0.791-0.156-1.24c-0.239-0.821-1.057-1.002-1.391-1.027c-0.822,0.021-3.266,1.204-5.141,4.586
		c-1.431,2.584-2.047,6.164-1.379,7.979c0.248,0.676,0.563,0.795,0.672,0.834c1.957,0.726,4.26-1.457,5.664-3.946
		c0.391-0.685,1.258-0.931,1.942-0.542c0.688,0.39,0.933,1.261,0.543,1.949C207.401,46.44,204.646,48.455,202.012,48.455"/>
	<path style="fill:#1D2974;" d="M240.776,18.021c-2.927,0-5.669-0.534-8.32-1.052c-1.072-0.209-2.146-0.42-3.229-0.596
		c-4.487-0.731-7.606-0.359-10.121,1.209c-0.664,0.424-1.551,0.211-1.967-0.455c-0.42-0.668-0.215-1.551,0.453-1.967
		c4.064-2.543,8.853-2.138,12.092-1.604c1.113,0.178,2.213,0.396,3.316,0.61c2.666,0.519,5.188,0.951,7.795,1
		c2.914-0.008,5.152-0.015,7.764-1.817c0.654-0.452,1.537-0.284,1.988,0.364c0.447,0.649,0.281,1.539-0.365,1.986
		c-3.342,2.309-6.231,2.313-9.297,2.322C240.847,18.021,240.808,18.021,240.776,18.021"/>
	<path style="fill:#1D2974;" d="M243.992,32.233c-0.539,0-2.056,0.712-3.937,3.053c-1.401,1.741-2.078,3.686-2.332,5.397
		c0.644-0.313,1.267-0.662,1.863-1.039c0.795-0.498,1.537-1.081,2.15-1.688c2.155-2.15,2.995-4.071,2.866-5.02
		c-0.043-0.314-0.184-0.511-0.483-0.684C244.088,32.244,244.047,32.233,243.992,32.233 M223.078,44.968
		c-2.318,0-3.039,0.679-3.045,0.687c-0.229,0.258-0.474,0.865-0.101,1.318c0.144,0.168,0.369,0.454,1.74-0.049
		c1.104-0.403,2.041-1.088,2.824-1.894l-0.609-0.036C223.597,44.977,223.328,44.968,223.078,44.968 M220.463,50.063
		c-0.91,0-1.92-0.286-2.732-1.271c-1.352-1.643-0.936-3.777,0.173-5.041c0.396-0.447,1.981-1.864,6.178-1.606l0.69,0.041
		c0.4,0.022,0.806,0.046,1.207,0.084c0.162,0.015,0.328,0.03,0.488,0.047c0.594-1.076,0.988-2.089,1.219-2.752
		c0.146-0.429,0.242-0.885,0.345-1.336l0.086-0.386c0.52-2.254,0.996-4.508,1.469-6.771l0.299-1.445
		c0.854-4.123,2.437-11.799,3.354-14.217c0.28-0.738,1.11-1.104,1.846-0.826c0.736,0.279,1.104,1.104,0.826,1.843
		c-0.84,2.204-2.515,10.313-3.226,13.776l-0.303,1.457c-0.479,2.277-0.959,4.551-1.479,6.82l-0.08,0.364
		c-0.121,0.555-0.25,1.112-0.433,1.643c-0.252,0.736-0.539,1.442-0.854,2.11c0.082,0.001,0.155,0.001,0.229,0.001
		c1.793,0,3.334-0.226,4.976-0.724c0.006-0.002,0.014-0.006,0.02-0.008c0.076-2.559,0.877-5.645,3.074-8.371
		c2.646-3.295,5.395-4.688,7.541-3.805c1.244,0.693,1.902,1.655,2.063,2.864c0.283,2.104-1.059,4.812-3.684,7.425
		c-0.771,0.768-1.662,1.469-2.646,2.085c-1.07,0.674-2.222,1.271-3.396,1.763c0.092,0.58,0.236,1.025,0.389,1.291
		c0.406,0.689,0.938,1.176,1.576,1.438c1.732,0.7,3.39,0.317,5.197-1.194c1.074-0.892,2.133-1.951,3.229-3.242l3.093-4.438
		c0.448-0.646,1.34-0.809,1.987-0.355c0.646,0.453,0.806,1.342,0.355,1.99l-3.176,4.546c-1.291,1.528-2.466,2.701-3.662,3.695
		c-2.631,2.194-5.359,2.747-8.104,1.646c-1.221-0.504-2.244-1.416-2.965-2.643c-0.25-0.432-0.473-1.043-0.635-1.791
		c-1.758,0.482-3.418,0.768-5.387,0.682c-0.574-0.002-1.134-0.043-1.688-0.1c-1.469,2.047-3.275,3.523-5.272,4.253
		C222.242,49.755,221.403,50.063,220.463,50.063"/>
	<path style="fill:#1D2974;" d="M249.504,50.071c-0.133,0-0.271-0.018-0.406-0.06c-0.756-0.224-1.188-1.021-0.965-1.776
		c0.168-0.563,0.422-1.326,0.726-2.242c0.942-2.851,2.366-7.16,3.194-11.461c0.183-0.961-0.02-1.912-0.6-2.822
		c-0.424-0.664-0.229-1.549,0.438-1.972c0.664-0.428,1.547-0.228,1.972,0.438c0.971,1.521,1.313,3.214,0.993,4.892
		c-0.858,4.49-2.319,8.903-3.284,11.823c-0.295,0.882-0.539,1.615-0.697,2.159C250.687,49.669,250.121,50.071,249.504,50.071"/>
	<path style="fill:#1D2974;" d="M274.017,23.518c-0.535,1.104-1.155,3.061-1.426,4.893c-0.086,0.582-0.193,1.51-0.301,2.625
		c0.029-0.065,0.059-0.13,0.086-0.195c0.221-0.496,0.447-0.991,0.588-1.51C273.68,26.903,274.021,24.744,274.017,23.518
		 M262.364,50.527c-0.111,0-0.228-0.001-0.343-0.009c-1.805-0.083-3.266-1.027-3.901-2.521c-0.699-1.644-0.244-3.277,0.121-4.59
		l0.147-0.56c0.068-0.263,0.207-0.687,0.39-1.224c0.641-1.922,2.34-7.031,1.235-8.83c-0.131-0.213-0.336-0.44-0.877-0.521
		c-3.201-0.115-4.291,3.061-4.539,4.053c-0.19,0.768-0.979,1.227-1.729,1.041c-0.769-0.193-1.232-0.969-1.041-1.734
		c0.752-3.008,3.096-6.444,7.602-6.199c1.396,0.203,2.396,0.843,3.021,1.867c1.803,2.935,0.006,8.33-0.961,11.228
		c-0.152,0.457-0.273,0.814-0.33,1.036l-0.164,0.607c-0.283,1.021-0.556,1.986-0.248,2.707c0.293,0.684,1.156,0.774,1.414,0.787
		c1.811,0.125,3.129-0.998,4.633-3.623c0.268-0.474,0.52-0.959,0.77-1.445l0.382-0.729c0.332-0.632,0.631-1.281,0.918-1.949
		c0.088-4.603,0.752-10.889,0.905-11.932c0.127-0.861,1.343-8.445,4.732-8.085c0.721,0.078,1.34,0.46,1.752,1.075
		c1.232,1.85,0.393,5.977-0.531,9.111c-0.182,0.654-0.455,1.283-0.731,1.908c-0.17,0.387-0.347,0.772-0.48,1.17
		c-0.578,1.68-1.127,3.271-1.764,4.808l-0.469,1.153c-0.187,0.468-0.38,0.939-0.574,1.414c-0.019,1.383,0.028,2.468,0.174,2.959
		l0.178,0.664c0.539,2.109,1.023,3.181,2.17,3.181c1.802,0,2.543-1.119,3.203-2.367c0.369-0.694,1.236-0.961,1.933-0.592
		c0.694,0.368,0.965,1.235,0.594,1.93c-0.615,1.163-2.06,3.886-5.729,3.886c-3.326,0-4.354-3.113-4.838-4.938
		c-0.039,0.065-0.074,0.133-0.113,0.198C268.014,47.655,265.941,50.527,262.364,50.527"/>
	<path style="fill:#1D2974;" d="M269.164,32.136c-1.271,0-2.146-0.024-2.246-0.028c-0.789-0.023-1.408-0.682-1.383-1.471
		c0.02-0.789,0.672-1.374,1.471-1.385c0.076,0.004,7.512,0.218,11.182-0.645c0.763-0.172,1.537,0.294,1.722,1.063
		c0.18,0.769-0.297,1.537-1.064,1.72C276.121,32.026,271.793,32.136,269.164,32.136"/>
	<path style="fill:#1D2974;" d="M186.892,62.565c-0.024,0-0.051,0-0.078,0c-30.401-1.576-72.517-0.016-72.937,0h-0.056
		c-0.766,0-1.398-0.604-1.427-1.375c-0.031-0.787,0.584-1.449,1.373-1.48c0.421-0.018,42.657-1.58,73.196,0.002
		c0.787,0.041,1.396,0.711,1.354,1.5C188.278,61.976,187.646,62.565,186.892,62.565"/>
	<path style="fill:#1D2974;" d="M281.064,62.81c-0.075,0-0.153-0.006-0.231-0.021c-7.063-1.164-54.801-0.235-55.279-0.224
		c-0.809-0.059-1.44-0.612-1.459-1.399c-0.014-0.791,0.613-1.44,1.4-1.457c1.979-0.039,48.492-0.942,55.801,0.263
		c0.781,0.129,1.305,0.862,1.18,1.645C282.357,62.313,281.754,62.81,281.064,62.81"/>
	<path style="fill:#1D2974;" d="M75.225,64.726c0.707,2.199,1.414,4.401,2.119,6.604c0.95,2.959,0.768,1.453,0.71,4.53
		c-0.097,5.222-0.188,10.439-0.281,15.66c-0.041,2.168,2.048,3.474,4.019,3.063c2.47-0.512,4.938-1.023,7.407-1.537
		c4.012-0.831,2.311-6.953-1.689-6.125c-2.467,0.512-4.935,1.023-7.407,1.537c1.342,1.02,2.684,2.041,4.024,3.063
		c0.097-5.472,0.196-10.94,0.295-16.414c0.077-4.176-1.804-8.129-3.072-12.071C80.102,59.151,73.972,60.813,75.225,64.726"/>
	<path style="fill:#1D2974;" d="M32.631,59.019c-2.389,7.641-4.938,15.213-7.498,22.797c-0.45,1.332,0.279,2.91,1.458,3.588
		c2.004,1.152,4.009,2.307,6.013,3.459c3.562,2.049,6.759-3.441,3.208-5.484c-2.005-1.152-4.009-2.309-6.013-3.461
		c0.487,1.193,0.973,2.393,1.46,3.586c2.561-7.582,5.106-15.156,7.498-22.795C39.984,56.788,33.848,55.122,32.631,59.019"/>
	<path style="fill:#DD5519;" d="M67.568,34.164c0.242-0.836,0.634-1.643,0.938-2.438c0.774-1.992,1.547-3.98,2.32-5.967
		c0.974-2.518,1.956-5.038,2.93-7.555c0.935-2.41,1.875-4.82,2.807-7.229c0.582-1.498,1.154-3.001,1.818-4.462
		c0.759-1.679,0.134-1.863-1.403-1.827c-0.41,0.012-0.831,0.007-1.239,0.025c-0.95,0.043-1.905,0.154-2.858,0.119
		c-7.442-0.285-21.411-0.994-26.717-0.666c-6.343,0.387-12.521-0.701-18.838-0.761c-0.888-0.006-2.768-0.221-3.45,0.624
		c-0.544,0.666-1.083,1.34-1.623,2.008c-1.317,1.625-2.63,3.252-3.941,4.877c-1.65,2.053-3.316,4.1-4.964,6.155
		c-1.563,1.944-3.148,3.877-4.705,5.828c-1.093,1.372-2.253,2.688-3.273,4.123c-0.84,1.181-0.602,2.795-0.688,4.18
		c-0.104,1.817-0.288,3.63-0.425,5.447c-0.296,3.835-0.602,7.667-0.902,11.499c0,2.742-0.435,5.557-0.648,8.292
		c-0.109,1.432-0.73,2.86,0.845,3.432c7.374,2.676,15.282,2.418,22.883,3.803c11.908,2.17,12.51,2.222,24.484,3.683
		c4.91,0.602,8.346,1.438,10.861,1.858c1.169,0.192,3.956,1.08,4.231-1.056c0.214-1.641,0.071-3.03,0.149-4.686
		c0.104-2.219,0.209-4.438,0.318-6.654c0.158-3.319,0.315-6.641,0.479-9.96c0.134-2.858,0.271-5.717,0.411-8.576
		c0-1.071-0.114-2.168,0.014-3.239C67.417,34.742,67.487,34.451,67.568,34.164"/>
	<path style="fill:#DD5519;" d="M80.944,6.886c-0.205,0.141-0.387,0.475-0.516,0.78c-0.482,1.094-0.891,2.188-1.328,3.303
		c-0.891,2.309-1.788,4.611-2.681,6.92c-0.989,2.538-1.977,5.08-2.965,7.619c-0.812,2.1-1.631,4.201-2.442,6.3
		c-0.635,1.632-1.174,2.979-1.255,4.762c-0.091,1.961-0.182,3.923-0.268,5.884c-0.054,1.12-0.105,2.238-0.157,3.358
		c-0.287,6.091-0.545,12.186-0.854,18.277c-0.066,1.244-0.859,5.146,0.521,5.43c0.844,0.174,2.209-0.473,3.078-0.604
		c1.045-0.152,2.076-0.346,3.111-0.531c4.043-0.729,8.089-1.494,12.146-2.125c1.083-0.172,3.769,0.002,4.4-0.953
		c0.686-1.039,0.334-3.467,0.391-4.672c0.071-1.73,0.176-3.455,0.262-5.187c0.291-5.792,0.625-11.581,0.859-17.378
		c0.048-1.174,0.115-2.342,0.19-3.519c0.134-2.047,0.085-3.043-0.815-4.877c-0.82-1.668-1.642-3.332-2.462-5
		c-1.044-2.112-2.097-4.227-3.149-6.338c-1.208-2.428-2.404-4.861-3.646-7.273c-0.435-0.85-0.83-1.723-1.179-2.618
		C82.021,8.033,81.593,6.447,80.944,6.886"/>
	<path style="fill:#1D2974;" d="M12.292,54.815c-0.12,2.563-0.234,5.121-0.354,7.686c-0.083,1.859-0.167,3.723-0.252,5.582
		c-0.023,0.514-0.381,4.055-0.057,2.537c-1.274,5.984-2.547,11.977-3.82,17.961c-0.37,1.74,0.494,3.361,2.217,3.906
		c2.22,0.699,4.438,1.398,6.657,2.098c3.92,1.236,5.584-4.896,1.689-6.125c-2.22-0.699-4.438-1.396-6.658-2.098
		c0.74,1.303,1.48,2.604,2.22,3.908c1.274-5.986,2.547-11.978,3.822-17.963c1.177-5.539,0.63-11.84,0.888-17.492
		C18.829,50.721,12.475,50.736,12.292,54.815"/>
	<path style="fill:#1D2974;" d="M51.893,61.354c0.073,2.854,0.148,5.707,0.225,8.563c0.048,1.811,0.096,3.621,0.144,5.434
		c0.016,0.463-0.036,3.967,0.185,2.385c-0.853,6.136-1.702,12.271-2.555,18.406c-0.229,1.67,0.375,3.459,2.219,3.906
		c2.242,0.545,4.485,1.092,6.725,1.635c3.979,0.969,5.669-5.158,1.688-6.125c-2.24-0.545-4.48-1.092-6.724-1.635
		c0.739,1.303,1.479,2.604,2.218,3.908c0.858-6.172,1.714-12.34,2.568-18.512c0.799-5.764-0.187-12.146-0.338-17.965
		C58.136,57.265,51.785,57.254,51.893,61.354"/>
	<path style="fill:#1D2974;" d="M222.965,71.499h18.918c1.451,0,1.451-2.25,0-2.25h-18.918
		C221.514,69.249,221.514,71.499,222.965,71.499"/>
	<path style="fill:#1D2974;" d="M224.576,81.7h15.688c-0.375-0.373-0.752-0.75-1.125-1.125v6.719c0.373-0.375,0.75-0.75,1.125-1.123
		h-15.688c-1.449,0-1.449,2.248,0,2.248h15.688c0.611,0,1.125-0.51,1.125-1.125v-6.719c0-0.613-0.514-1.125-1.125-1.125h-15.688
		C223.127,79.45,223.127,81.7,224.576,81.7"/>
	<path style="fill:#1D2974;" d="M231.297,67.457v11.767v7.799c0,2.904,0.813,3.356-2.859,3.695c-1.434,0.131-1.442,2.383,0,2.25
		c5.752-0.527,5.109-3.548,5.109-8.232V67.457C233.547,66.008,231.297,66.008,231.297,67.457"/>
	<path style="fill:#1D2974;" d="M221.461,85.058h21.926c1.449,0,1.449-2.248,0-2.248h-21.926
		C220.01,82.81,220.01,85.058,221.461,85.058"/>
	<path style="fill:#1D2974;" d="M237.689,76.187c0.046-0.117,0.584-0.053-0.065-0.053h-1.521h-4.672h-3.715h-0.897
		c0.356,0.336,0.481,0.276,0.372-0.173v-1.347c0,0.257-0.686,0.201,0.025,0.201h1.521h4.674h3.981c0.9,0,0.259,0.078,0.259-0.201
		v1.869c0,1.451,2.25,1.451,2.25,0c0-1.512,0.288-3.373-1.548-3.877c-1.188-0.326-2.771-0.041-3.981-0.041h-6.346
		c-1.457,0-2.449,0.063-3.046,1.603c-0.547,1.406-0.055,3.746,1.509,4.179c1.184,0.323,2.771,0.039,3.979,0.039h6.354
		c1.448,0,2.446-0.064,3.039-1.601C240.379,75.427,238.203,74.847,237.689,76.187"/>
	<path style="fill:#1D2974;" d="M189.783,75.132h8.951c1.448,0,1.448-2.25,0-2.25h-8.951
		C188.33,72.882,188.33,75.132,189.783,75.132"/>
	<path style="fill:#1D2974;" d="M202.735,75.132h7.53c1.449,0,1.449-2.25,0-2.25h-7.53
		C201.283,72.882,201.283,75.132,202.735,75.132"/>
	<path style="fill:#1D2974;" d="M196.412,89.472c0.045-0.113,0.578-0.052-0.049-0.052h-1.025h-2.549h-0.859
		c-0.42,0,0.207,0.494,0.207,0.248v-1.323v-8.183c0,0.396-0.666,0.321,0.019,0.321h1.024h2.547h0.855
		c0.426,0-0.209-0.493-0.209-0.248v1.324v8.211c0,1.449,2.25,1.449,2.25,0v-9.608c0-2.119-2.26-1.929-3.707-1.929
		c-1.932,0-4.156-0.545-4.988,1.603c-0.459,1.185-0.039,3.228-0.039,4.464v5.442c0,2.118,2.267,1.926,3.709,1.926
		c1.929,0,4.164,0.548,4.984-1.601C199.101,88.711,196.926,88.131,196.412,89.472"/>
	<path style="fill:#1D2974;" d="M193.131,68.595V79.36c0,1.451,2.252,1.451,2.252,0V68.595
		C195.383,67.144,193.131,67.144,193.131,68.595"/>
	<path style="fill:#1D2974;" d="M203.48,68.293c-1.327,3.17-2.653,6.341-3.983,9.511c-0.563,1.34,1.617,1.918,2.17,0.6
		c1.328-3.17,2.658-6.34,3.984-9.51C206.211,67.554,204.031,66.978,203.48,68.293"/>
	<path style="fill:#1D2974;" d="M202.008,80.161c1.217,2.416,2.432,4.834,3.646,7.252c0.266,0.527,0.53,1.061,0.799,1.59
		c0.346,0.688,0.063,0.074,0.315,0.664c0.658,1.521,2.314,2.115,3.855,1.941c1.422-0.158,1.438-2.414,0-2.25
		c-2.104,0.236-2.697-2.418-3.563-4.137c-1.035-2.066-2.071-4.132-3.108-6.197C203.303,77.728,201.36,78.868,202.008,80.161"/>
	<path style="fill:#1D2974;" d="M207.349,73.438c-2.311,5.385-4.621,10.771-6.93,16.152c-0.564,1.317,1.373,2.467,1.941,1.135
		c2.309-5.381,4.618-10.769,6.93-16.15C209.86,73.256,207.922,72.108,207.349,73.438"/>
	<path style="fill:#1D2974;" d="M256.887,73.754h12.041c2.777,0,5.357,0.572,5.357-2.967c0-3.529-2.562-2.968-5.33-2.968h-11.949
		c-0.631,0-1.107,0.513-1.127,1.127c-0.115,3.539-0.229,7.082-0.344,10.623c-0.086,2.726,1.047,10.244-2.814,10.843
		c-1.432,0.222-0.822,2.39,0.601,2.168c4.121-0.636,4.2-4.856,4.307-8.142c0.17-5.164,0.336-10.328,0.504-15.492
		c-0.375,0.373-0.752,0.748-1.123,1.123h7.717h5.627h1.521c0.74,0,0.166-0.264,0.166,0.718c0,1.088,0.447,0.717-1.103,0.717h-5.375
		h-8.674C255.433,71.504,255.433,73.754,256.887,73.754"/>
	<path style="fill:#1D2974;" d="M260.448,77.586h12.67c1.451,0,1.451-2.25,0-2.25h-12.67
		C258.996,75.336,258.996,77.586,260.448,77.586"/>
	<path style="fill:#1D2974;" d="M260.871,86.72h11.822c1.448,0,1.448-2.25,0-2.25h-11.822C259.42,84.47,259.42,86.72,260.871,86.72"
		/>
	<path style="fill:#1D2974;" d="M267.905,89.877v-8.271c0-1.451-2.25-1.451-2.25,0v8.271
		C265.655,91.329,267.905,91.329,267.905,89.877"/>
	<path style="fill:#1D2974;" d="M259.135,91.009h15.295c1.451,0,1.451-2.25,0-2.25h-15.295
		C257.681,88.759,257.681,91.009,259.135,91.009"/>
	<path style="fill:#1D2974;" d="M260.448,82.733h12.366c1.451,0,1.451-2.25,0-2.25h-12.366
		C258.996,80.483,258.996,82.733,260.448,82.733"/>
</g>
</svg>
